<svg height="1024" preserveAspectRatio="none" style="display: block;" version="1.1" viewBox="0 0 2048 2048" width="1024" xmlns="http://www.w3.org/2000/svg">
  <g transform="translate(1024, 1024) scale(3.2) translate(-463, -1026)">
    <path d="M 462.045 761.698 C 468.481 762.34 509.496 797.653 516.816 804.288 C 517.066 821.546 516.647 839.267 516.839 856.701 C 523.62 861.196 538.821 873.942 545.822 879.608 C 560.511 891.495 578.925 905.179 592.424 917.867 C 592.77 933.396 590.996 971.091 592.778 984.341 C 586.721 979.838 581.695 975.546 575.957 970.622 L 575.964 926.454 C 563.972 913.814 530.674 888.456 516.043 876.73 L 516.051 892.052 C 527.092 902.277 539.683 910.986 550.388 922.036 C 550.806 937.181 551.007 952.332 550.991 967.483 C 564.563 978.05 579.878 990.621 592.593 1002.17 C 592.242 1021.49 592.056 1040.82 592.035 1060.16 C 563.243 1035.52 529.418 1010.33 502.023 984.916 L 502.006 938.241 C 488.669 928.164 476.229 917.762 463.344 907.13 C 450.89 919.264 422.071 941.096 407.944 951.9 C 408.089 944.202 407.855 939.99 407.097 932.309 L 464.062 886.031 C 476.059 895.203 508.851 922.27 519.107 932.582 C 519.659 947.006 519.312 963.82 519.374 978.432 C 535.33 992.5 559.143 1012.54 575.496 1025.65 L 575.674 1009.13 C 564.296 997.886 546.611 985.686 533.855 974.635 C 533.267 961.115 533.973 942.474 533.965 928.497 C 523.107 918.218 511.126 909.829 499.898 899.856 L 499.979 846.75 C 500.01 834.849 499.929 822.947 499.736 811.047 C 489.291 803.381 472.394 789.396 463.108 780.795 C 451.496 790.817 439.005 800.556 426.99 810.159 L 427.312 900.78 C 416.997 910.452 403.965 920.463 392.842 929.296 L 392.563 974.442 C 383.034 983.413 361.041 1001.66 350.475 1009.45 C 350.236 1014.31 350.391 1020.64 350.386 1025.61 C 360.461 1018.14 372.062 1007.83 381.895 999.769 C 409.21 977.365 435.746 953.678 463.144 931.367 C 471.069 936.656 477.703 943.894 486.744 949.777 C 486.848 957.905 486.709 963.086 485.987 971.16 C 479.247 965.051 470.595 958.101 463.542 952.141 C 452.799 960.276 439.592 973.562 428.629 982.528 C 397.519 1007.97 366.462 1035.62 334.646 1060 C 333.813 1041.51 334.195 1020.44 334.114 1001.76 C 347.935 989.923 362.014 978.391 376.343 967.173 C 375.858 952.373 376.158 935.95 376.116 921.025 C 387.008 911.996 401.599 900.982 411.279 891.404 L 409.637 877.485 C 390.941 894.058 368.938 908.739 350.577 925.63 C 351.036 940.051 350.815 955.818 350.903 970.347 C 344.676 975.894 341.266 978.64 334.426 983.387 C 333.786 961.702 334.088 938.849 334.04 917.078 C 346.146 907.411 357.805 898.46 369.745 888.52 C 380.645 879.446 398.445 863.533 409.877 856.42 C 409.126 840.861 410.703 817.734 409.069 803.911 C 414.429 799.079 421.727 794.078 427.449 789.39 C 438.888 780.017 450.302 770.689 462.045 761.698 z" fill="rgb(32,40,81)" transform="translate(0,0)"/>
    <path d="M 432.808 1089.15 C 400.594 1067.24 396.572 1027.1 423.637 1000.17 C 433.777 990.083 450.825 974.712 463.002 967.352 C 465.238 970.293 468.912 973.59 471.639 976.219 C 475.505 979.022 477.775 981.051 481.306 984.29 C 484.332 987.118 487.991 990.361 490.761 993.354 C 495.549 998.339 500.241 1003.41 504.834 1008.58 C 532.614 1036.72 532.44 1072.99 502.77 1098.99 C 490.068 1110.12 477.536 1121.22 464.639 1132.18 C 461.004 1129.54 457.393 1127.04 454.014 1124.08 C 449.533 1121.07 446.955 1118.5 441.676 1115.24 C 437.052 1111.33 438.869 1103.43 440.986 1098.69 C 439.154 1095.2 435.624 1092.03 432.808 1089.15 z" fill="rgb(254,254,253)" transform="translate(0,0)"/>
    <path d="M 488.425 1015.05 C 490.94 1012.37 493.178 1009.91 495.573 1007.12 C 500.051 1005.63 499.654 1006.43 504.834 1008.58 C 532.614 1036.72 532.44 1072.99 502.77 1098.99 C 490.068 1110.12 477.536 1121.22 464.639 1132.18 C 461.004 1129.54 457.393 1127.04 454.014 1124.08 C 467 1106.68 487.274 1095.15 500.289 1078.26 C 517.752 1055.61 509.66 1030.99 488.425 1015.05 z" fill="rgb(126,198,64)" transform="translate(0,0)"/>
    <path d="M 432.808 1089.15 C 400.594 1067.24 396.572 1027.1 423.637 1000.17 C 433.777 990.083 450.825 974.712 463.002 967.352 C 465.238 970.293 468.912 973.59 471.639 976.219 C 450.741 997.45 413.958 1017.23 421.21 1051.89 C 422.775 1059.37 427.732 1067.5 433.274 1072.72 C 435.89 1075.16 438.648 1077.45 441.534 1079.56 L 432.808 1089.15 z" fill="rgb(126,198,64)" transform="translate(0,0)"/>
    <path d="M 477.999 1023.48 C 515.032 1043.95 493.342 1074.58 468.829 1092.69 C 459.952 1099.26 451.119 1109.4 441.676 1115.24 C 437.052 1111.33 438.869 1103.43 440.986 1098.69 C 443.526 1097.61 457.925 1083.27 461.273 1080.11 C 478.688 1063.68 493.874 1054.47 471.846 1033.53 C 473.784 1030.18 475.726 1026.59 477.999 1023.48 z" fill="rgb(126,198,64)" transform="translate(0,0)"/>
    <path d="M 481.306 984.29 C 484.332 987.118 487.991 990.361 490.761 993.354 C 478.881 1006.11 464.674 1015.9 453.216 1028.65 C 441.83 1041.31 447.218 1052.64 459.234 1061.39 C 456.877 1064.86 454.285 1067.92 451.639 1071.18 C 440.037 1065.54 430.972 1053.16 432.87 1039.58 C 435.618 1019.94 454.557 1007.64 468.185 995.278 C 472.298 991.546 477.021 987.847 481.306 984.29 z" fill="rgb(126,198,64)" transform="translate(0,0)"/>
    <path d="M 565.379 842.244 C 571.139 844.731 596.555 864.078 602.703 868.606 C 622.887 883.558 643.213 898.317 663.679 912.88 L 663.64 1069 C 663.675 1090.94 663.004 1114.82 663.794 1136.58 C 656.346 1143.78 636.268 1157.44 627.098 1163.97 L 566.568 1207.32 L 551.756 1217.67 C 551.847 1210.79 551.902 1203.91 551.922 1197.03 C 583.678 1176.14 615.176 1151.09 647.849 1129.48 C 646.558 1121.59 646.96 1104.96 646.966 1096.5 C 646.93 1077.04 647.03 1057.57 647.265 1038.11 C 647.721 999.565 646.983 959.798 647 921.061 C 620.636 901.116 591.905 881.038 564.893 861.831 C 564.959 855.3 565.121 848.77 565.379 842.244 z" fill="rgb(32,40,81)" transform="translate(0,0)"/>
    <path d="M 359.871 841.797 C 362.06 844.128 361.077 857.235 360.997 861.401 C 334.264 881.122 306.181 902.476 279.012 921.364 L 278.93 1057.24 C 278.968 1079.84 278.319 1107.38 279.569 1129.66 C 288.333 1136.44 301.266 1144.96 310.564 1151.51 L 374.993 1196.92 L 375.05 1217.72 C 371.553 1214.97 367.569 1212.47 363.841 1210 C 334.519 1186.7 293.895 1160.54 262.716 1137.58 C 261.702 1112.61 262.647 1081.61 262.695 1056.3 L 262.699 912.694 L 359.871 841.797 z" fill="rgb(32,40,81)" transform="translate(0,0)"/>
    <path d="M 408.484 1083.33 C 413.362 1086.33 420.116 1095.07 423.962 1099.66 C 424.261 1142.43 423.096 1190.54 424.814 1232.73 C 420.448 1236.61 411.726 1244.84 406.316 1246.25 C 399.956 1242.05 395.883 1238.59 390.023 1233.66 C 389.685 1216.96 390.03 1199.52 389.838 1182.64 L 408.44 1163.92 C 408.897 1140.1 406.556 1105.68 408.484 1083.33 z" fill="rgb(20,185,198)" transform="translate(0,0)"/>
    <path d="M 517.131 1101.86 L 517.849 1102.39 C 519.494 1105.72 518.175 1157 518.243 1164.86 C 524.494 1170.05 530.712 1175.27 536.898 1180.53 C 537.251 1198.23 536.991 1216.83 537.026 1234.6 C 532.509 1237.66 526.972 1242.09 522.52 1245.46 C 518.378 1247.67 506.484 1236.8 502.557 1233.78 C 501.916 1219.47 502.422 1202.09 502.484 1187.59 C 502.484 1163.13 502.666 1138.68 503.03 1114.23 C 507.678 1109.69 512.152 1106.01 517.131 1101.86 z" fill="rgb(20,185,198)" transform="translate(0,0)"/>
    <path d="M 437.944 1131.12 C 443.316 1133.11 449.715 1139.11 453.979 1143 C 454.453 1181.88 453.543 1221.09 454.045 1260 C 453.848 1263.13 454.319 1265.24 456.019 1268.02 C 460.798 1275.84 459.028 1280.87 452.141 1286.45 C 435.992 1290.89 424.797 1276.48 438.171 1263.62 C 437.739 1219.45 437.664 1175.28 437.944 1131.12 z" fill="rgb(20,185,198)" transform="translate(0,0)"/>
    <path d="M 487.032 1129.85 C 487.087 1129.9 487.152 1129.95 487.198 1130.01 C 489.629 1133.33 488.026 1250.12 487.999 1263.88 C 499.353 1277.07 495.268 1287.02 477.55 1287.64 C 466.978 1282.03 464.897 1274.76 472.219 1265.12 L 472.101 1141.49 C 477.262 1137.76 482.071 1133.84 487.032 1129.85 z" fill="rgb(20,185,198)" transform="translate(0,0)"/>
    <path d="M 391.89 1033.9 C 394.139 1036.15 392.285 1126.4 392.736 1138.35 C 405.559 1150.83 396.937 1160.9 382.014 1160.99 C 368.87 1157.8 367.631 1145.82 377.018 1137.8 C 377.491 1107.97 376.428 1076.73 377.53 1047.24 C 382.092 1041.93 386.477 1038.23 391.89 1033.9 z" fill="rgb(20,185,198)" transform="translate(0,0)"/>
    <path d="M 534.06 1033.37 C 538.09 1035.83 545.496 1042.4 549.388 1045.67 C 551.521 1068.05 549.728 1112.67 550.405 1137.52 C 557.422 1146.59 558.77 1151.64 549.211 1159.85 C 543.975 1161.88 537.781 1162.32 533.444 1157.91 C 524.926 1149.24 534.798 1139.78 535.047 1131.59 C 535.344 1121.81 534.959 1110.92 534.87 1100.9 L 534.06 1033.37 z" fill="rgb(20,185,198)" transform="translate(0,0)"/>
    <path d="M 462.666 799.573 C 469.616 803.403 481.864 814.293 487.303 820.175 C 487.864 830.336 487.345 845.358 487.276 855.939 C 479.639 850.472 471.053 843.159 463.654 837.173 C 456.944 841.62 447.093 851.039 439.176 856.741 C 439.655 843.834 438.627 831.628 440.122 818.764 C 447.577 812.298 455.092 805.9 462.666 799.573 z" fill="rgb(230,158,67)" transform="translate(0,0)"/>
    <path d="M 630.868 1066.71 C 631.706 1070.53 631.041 1113.1 630.987 1120.47 L 614.595 1132.39 C 613.548 1126.56 614.126 1088.29 614.131 1080.22 C 619.628 1075.61 625.208 1071.11 630.868 1066.71 z" fill="rgb(32,40,81)" transform="translate(0,0)"/>
    <path d="M 613.913 917.26 C 619.591 920.573 626.079 925.871 630.934 930.308 L 631.236 981.612 C 626.508 979.316 618.133 971.429 614.114 967.751 C 613.809 951.106 613.962 933.938 613.913 917.26 z" fill="rgb(32,40,81)" transform="translate(0,0)"/>
    <path d="M 311.228 917.804 L 312.06 918.047 C 312.904 919.974 312.795 960.826 313.097 966.667 C 308.626 970.923 301.517 976.489 296.606 980.564 C 294.184 977.392 296.073 940.88 294.785 930.498 C 299.807 926.012 305.765 921.833 311.228 917.804 z" fill="rgb(32,40,81)" transform="translate(0,0)"/>
    <path d="M 295.287 1066.43 C 300.599 1069.65 307.521 1075.72 312.502 1079.85 C 311.638 1095.8 312.086 1115.61 312.03 1131.85 C 307.691 1129.77 300.112 1124.01 296.065 1121.05 C 296.185 1106.1 296.964 1080.85 295.287 1066.43 z" fill="rgb(32,40,81)" transform="translate(0,0)"/>
    <path d="M 464.056 852.858 C 470.625 857.745 480.125 867.02 486.414 872.812 C 486.945 878.727 486.902 885.216 487.008 891.195 C 481.086 887.117 470.219 877.124 464.259 872.016 C 458.925 875.976 447.817 888.289 442.442 885.563 C 440.653 881.621 441.567 877.028 441.889 872.502 C 449.114 866.834 456.08 859.174 464.056 852.858 z" fill="rgb(20,185,198)" transform="translate(0,0)"/>
    <path d="M 533.052 818.346 C 539.278 822.198 544.332 825.752 550.287 830.036 C 549.989 841.973 550.728 856.474 551.013 868.65 C 548.45 867.068 535.656 855.724 532.931 853.39 C 532.734 841.709 532.774 830.026 533.052 818.346 z" fill="rgb(32,40,81)" transform="translate(0,0)"/>
    <path d="M 393.49 816.908 C 394.704 818.229 394.111 847.877 394.135 852.368 C 388.292 858.156 384.39 861.54 377.953 866.703 L 377.121 866.071 C 376.541 854.576 376.818 840.871 376.808 829.188 C 382.294 824.994 387.856 820.9 393.49 816.908 z" fill="rgb(32,40,81)" transform="translate(0,0)"/>
  </g>
</svg>
